<svg xmlns="http://www.w3.org/2000/svg" viewBox="0 0 760 640" role="img" aria-labelledby="title desc">
  <!-- Generated by assets/generate_analysis_radars.py -->
  <title id="title">Correcting throughput by machine (MiB/s) - Shakespeare</title>
  <desc id="desc">Correcting throughput by language across Dyson M4, Wigner M1 Max, and DMZ i5.</desc>
  <style>
    .bg { fill: #fbfaf6; }
    .grid { fill: none; stroke: #d8d2c8; stroke-width: 1; }
    .axis { stroke: #8f8779; stroke-width: 1.1; }
    .label { fill: #2f2a22; font: 13px ui-sans-serif, -apple-system, BlinkMacSystemFont, "Segoe UI", sans-serif; }
    .small { fill: #5f574d; font: 11px ui-sans-serif, -apple-system, BlinkMacSystemFont, "Segoe UI", sans-serif; }
  </style>
  <rect class="bg" x="0" y="0" width="760" height="640" rx="16" />

  <polygon class="grid" points="300.0,238.0 329.7,250.3 342.0,280.0 329.7,309.7 300.0,322.0 270.3,309.7 258.0,280.0 270.3,250.3" />
  <polygon class="grid" points="300.0,196.0 359.4,220.6 384.0,280.0 359.4,339.4 300.0,364.0 240.6,339.4 216.0,280.0 240.6,220.6" />
  <polygon class="grid" points="300.0,154.0 389.1,190.9 426.0,280.0 389.1,369.1 300.0,406.0 210.9,369.1 174.0,280.0 210.9,190.9" />
  <polygon class="grid" points="300.0,112.0 418.8,161.2 468.0,280.0 418.8,398.8 300.0,448.0 181.2,398.8 132.0,280.0 181.2,161.2" />
  <polygon class="grid" points="300.0,70.0 448.5,131.5 510.0,280.0 448.5,428.5 300.0,490.0 151.5,428.5 90.0,280.0 151.5,131.5" />

  <line class="axis" x1="300" y1="280" x2="300.0" y2="70.0" />
  <line class="axis" x1="300" y1="280" x2="448.5" y2="131.5" />
  <line class="axis" x1="300" y1="280" x2="510.0" y2="280.0" />
  <line class="axis" x1="300" y1="280" x2="448.5" y2="428.5" />
  <line class="axis" x1="300" y1="280" x2="300.0" y2="490.0" />
  <line class="axis" x1="300" y1="280" x2="151.5" y2="428.5" />
  <line class="axis" x1="300" y1="280" x2="90.0" y2="280.0" />
  <line class="axis" x1="300" y1="280" x2="151.5" y2="131.5" />

  <text class="small" x="316.0" y="240.0">12</text>
  <text class="small" x="316.0" y="198.0">24</text>
  <text class="small" x="316.0" y="156.0">36</text>
  <text class="small" x="316.0" y="114.0">48</text>
  <text class="small" x="316.0" y="72.0">60</text>

  <text class="label" x="300.0" y="38.0" text-anchor="middle">Rust</text>
  <text class="label" x="468.3" y="115.7" text-anchor="start">Go</text>
  <text class="label" x="538.0" y="284.0" text-anchor="start">C</text>
  <text class="label" x="468.3" y="452.3" text-anchor="start">C++</text>
  <text class="label" x="300.0" y="532.0" text-anchor="middle">Java</text>
  <text class="label" x="131.7" y="452.3" text-anchor="end">Haskell</text>
  <text class="label" x="62.0" y="284.0" text-anchor="end">Kotlin</text>
  <text class="label" x="131.7" y="115.7" text-anchor="end">Scala</text>

  <polygon points="300.0,89.0 391.9,188.1 406.9,280.0 372.0,352.0 300.0,364.0 242.8,337.2 225.4,280.0 260.4,240.4" fill="#2563eb" fill-opacity="0.18" stroke="#2563eb" stroke-width="2" />
  <circle cx="300.0" cy="89.0" r="2.3" fill="#2563eb" />
  <circle cx="391.9" cy="188.1" r="2.3" fill="#2563eb" />
  <circle cx="406.9" cy="280.0" r="2.3" fill="#2563eb" />
  <circle cx="372.0" cy="352.0" r="2.3" fill="#2563eb" />
  <circle cx="300.0" cy="364.0" r="2.3" fill="#2563eb" />
  <circle cx="242.8" cy="337.2" r="2.3" fill="#2563eb" />
  <circle cx="225.4" cy="280.0" r="2.3" fill="#2563eb" />
  <circle cx="260.4" cy="240.4" r="2.3" fill="#2563eb" />
  <polygon points="300.0,132.2 369.7,210.3 374.5,280.0 351.1,331.1 300.0,344.6 254.5,325.5 242.5,280.0 270.3,250.3" fill="#b45309" fill-opacity="0.16" stroke="#b45309" stroke-width="2" />
  <circle cx="300.0" cy="132.2" r="2.3" fill="#b45309" />
  <circle cx="369.7" cy="210.3" r="2.3" fill="#b45309" />
  <circle cx="374.5" cy="280.0" r="2.3" fill="#b45309" />
  <circle cx="351.1" cy="331.1" r="2.3" fill="#b45309" />
  <circle cx="300.0" cy="344.6" r="2.3" fill="#b45309" />
  <circle cx="254.5" cy="325.5" r="2.3" fill="#b45309" />
  <circle cx="242.5" cy="280.0" r="2.3" fill="#b45309" />
  <circle cx="270.3" cy="250.3" r="2.3" fill="#b45309" />
  <polygon points="300.0,211.0 326.6,253.4 355.7,280.0 334.2,314.2 300.0,314.3 279.2,300.8 269.6,280.0 284.3,264.3" fill="#0f766e" fill-opacity="0.14" stroke="#0f766e" stroke-width="2" />
  <circle cx="300.0" cy="211.0" r="2.3" fill="#0f766e" />
  <circle cx="326.6" cy="253.4" r="2.3" fill="#0f766e" />
  <circle cx="355.7" cy="280.0" r="2.3" fill="#0f766e" />
  <circle cx="334.2" cy="314.2" r="2.3" fill="#0f766e" />
  <circle cx="300.0" cy="314.3" r="2.3" fill="#0f766e" />
  <circle cx="279.2" cy="300.8" r="2.3" fill="#0f766e" />
  <circle cx="269.6" cy="280.0" r="2.3" fill="#0f766e" />
  <circle cx="284.3" cy="264.3" r="2.3" fill="#0f766e" />

  <text class="label" x="20" y="556">Correcting throughput by machine (MiB/s) - Shakespeare</text>
  <text class="small" x="20" y="576">Axes are categorical (languages); polygon edges connect axis values only.</text>
  <rect x="20" y="587" width="14" height="14" rx="2" fill="#2563eb" />
  <text class="small" x="40" y="598">Dyson M4</text>
  <rect x="190" y="587" width="14" height="14" rx="2" fill="#b45309" />
  <text class="small" x="210" y="598">Wigner M1 Max</text>
  <rect x="360" y="587" width="14" height="14" rx="2" fill="#0f766e" />
  <text class="small" x="380" y="598">DMZ i5</text>
</svg>
